<?xml version="1.0" encoding="UTF-8"?>
<!-- Generator: Adobe Illustrator 22.1.0, SVG Export Plug-In . SVG Version: 6.00 Build 0)  -->
<svg version="1.1" id="Layer_1" xmlns="http://www.w3.org/2000/svg" xmlns:xlink="http://www.w3.org/1999/xlink" x="0px" y="0px" viewBox="0 0 287 62" style="enable-background:new 0 0 287 62;" xml:space="preserve">
<style type="text/css">
	.st0{fill:#008080;}
	.st1{fill:#78BCC0;}
</style>
<g>
	<path class="st0" d="M49.3,45.2l1-0.1l0,2.9l2.5,0l0,1l-2.5,0l0,7.9c0,2.3,0.7,2.7,2.7,2.6l0,0.9c-2.8,0.3-3.7-0.8-3.7-3.5   L49.3,45.2z"/>
	<path class="st0" d="M63.4,56.9c0,2.2-1.1,3.4-3.6,3.4c-2.6,0-3.8-1.2-3.8-4.5l0-3.3c0-3.3,1.2-4.6,3.9-4.6c2.8,0,3.7,1.4,3.7,4.6   l0,1.8l-6.6,0l0,1.4c0,2.5,0.6,3.7,2.8,3.7c2.2,0,2.7-1,2.7-2.4L63.4,56.9z M62.6,53.4l0-0.8c0-2.3-0.4-3.7-2.8-3.8   c-2.2,0-2.9,1.1-2.9,3.7l0,0.9L62.6,53.4z"/>
	<path class="st0" d="M70.3,60.3c-2.5,0.2-3-0.7-3-3.4l0.1-12.6l1,0l-0.1,12.7c0,2.1,0.2,2.4,1.9,2.4L70.3,60.3z"/>
	<path class="st0" d="M80.7,57c0,2.2-1.1,3.4-3.6,3.4c-2.6,0-3.8-1.2-3.8-4.5l0-3.3c0-3.3,1.2-4.6,3.9-4.6c2.8,0,3.7,1.4,3.7,4.6   l0,1.8l-6.6,0l0,1.4c0,2.5,0.6,3.7,2.8,3.7c2.2,0,2.7-1,2.7-2.4L80.7,57z M80,53.4l0-0.8c0-2.3-0.4-3.7-2.8-3.8   c-2.2,0-2.9,1.1-2.9,3.7l0,0.9L80,53.4z"/>
	<path class="st0" d="M91.9,56.7c0,2.6-1.3,3.8-3.8,3.7c-2.6,0-3.8-1.3-3.8-4.6l0-3.2c0-3.4,1.3-4.5,3.9-4.5c2.7,0,3.5,1.2,3.6,3.5   l-1,0c-0.1-1.5-0.6-2.5-2.7-2.5c-2.2,0-2.9,1-2.9,3.6l0,3.2c0,2.5,0.5,3.6,2.8,3.7c2.3,0,2.8-1,2.8-2.7L91.9,56.7z"/>
	<path class="st0" d="M95.1,56l0-3.3c0-3.4,1.2-4.5,3.9-4.5c2.6,0,3.8,1,3.8,4.6l0,3.3c0,3.4-1.2,4.5-3.9,4.5   C96.3,60.5,95.1,59.5,95.1,56 M101.8,55.9l0-3.2c0-2.6-0.4-3.6-2.8-3.6c-2.2,0-2.8,1-2.8,3.6l0,3.2c0,2.6,0.4,3.7,2.8,3.7   C101.2,59.6,101.8,58.5,101.8,55.9"/>
	<path class="st0" d="M106.7,48.3l1,0l0.1,1c0.6-0.9,1.7-1.2,3-1.2c1.8,0,2.8,0.8,3.3,1.8c1-1.5,2.2-1.8,3.5-1.8   c3,0,3.7,1.6,3.7,4.5l0,7.9l-1,0l0-7.9c0-2.6-0.5-3.5-2.8-3.5c-2.3,0-2.9,1.4-2.9,3.1l0,8.2l-1,0l0-7.9c0-2.3-0.5-3.5-2.8-3.5   c-2.3,0-2.9,1-2.9,2.8l0,8.6l-1,0L106.7,48.3z"/>
	<path class="st0" d="M125.5,48.4l1,0l0.1,1c0.6-0.9,1.7-1.2,3-1.2c1.8,0,2.8,0.8,3.3,1.8c1-1.5,2.2-1.8,3.5-1.8   c3,0,3.7,1.6,3.7,4.5l0,7.9l-1,0l0-7.9c0-2.6-0.5-3.5-2.8-3.5c-2.3,0-2.9,1.4-2.9,3.1l0,8.2l-1,0l0-7.9c0-2.3-0.5-3.5-2.8-3.5   c-2.3,0-2.9,1-2.9,2.8l0,8.6l-1,0L125.5,48.4z"/>
	<path class="st0" d="M151,60.6l-0.1-1.3c-0.6,0.9-1.6,1.5-3.1,1.5c-2.8,0-3.7-1.3-3.7-4.4l0-7.8l1,0l0,7.8c0,2.7,0.6,3.5,2.8,3.5   c2.2,0,2.9-1.5,2.9-2.9l0-8.4l1,0l0,12.1L151,60.6z"/>
	<path class="st0" d="M157.2,48.5l0.1,1.3c0.6-0.9,1.6-1.5,3.1-1.5c2.8,0,3.7,1.3,3.7,4.4l0,7.9l-1,0l0-7.9c0-2.7-0.6-3.5-2.8-3.5   c-2.2,0-2.9,1.5-2.9,2.9l0,8.5l-1,0l0.1-12.1L157.2,48.5z"/>
	<path class="st0" d="M169.6,45.3c0,1-1.5,1-1.5,0C168.1,44.3,169.6,44.3,169.6,45.3 M169.3,60.7l-1,0l0.1-12.3l1,0L169.3,60.7z"/>
	<path class="st0" d="M180.8,57.1c0,2.6-1.3,3.8-3.8,3.7c-2.6,0-3.8-1.3-3.8-4.6l0-3.2c0-3.4,1.3-4.5,3.9-4.5c2.7,0,3.6,1.2,3.6,3.5   l-1,0c-0.1-1.5-0.6-2.5-2.7-2.5c-2.2,0-2.9,1-2.9,3.6l0,3.2c0,2.5,0.5,3.6,2.8,3.6c2.3,0,2.8-1,2.8-2.7L180.8,57.1z"/>
	<path class="st0" d="M190.8,60.8l0-1.6c-0.8,1.3-2,1.7-3.6,1.7c-2,0-3.4-0.9-3.4-3.2c0-3,2.6-3.6,6.9-3.3l0-1.7   c0-2.2-0.7-3.1-2.6-3.1c-1.7,0-2.6,0.5-2.7,2.8l-1,0c0-2.6,1-3.8,3.7-3.8c2.5,0,3.6,1.2,3.6,4l0,8.2L190.8,60.8z M190.7,55.3   c-4-0.4-5.8,0.2-5.8,2.3c0,1.6,0.9,2.2,2.7,2.2c2.3,0,3.1-1.7,3.1-3L190.7,55.3z"/>
	<path class="st0" d="M195.7,45.8l1-0.1l0,2.9l2.5,0l0,1l-2.5,0l0,7.9c0,2.3,0.7,2.7,2.7,2.6l0,0.9c-2.8,0.3-3.7-0.8-3.7-3.5   L195.7,45.8z"/>
	<path class="st0" d="M204.1,45.5c0,1-1.5,1-1.5,0C202.6,44.5,204.1,44.5,204.1,45.5 M203.8,60.8l-1,0l0-12.3l1,0L203.8,60.8z"/>
	<path class="st0" d="M207.6,56.4l0-3.3c0-3.4,1.2-4.5,3.9-4.5c2.6,0,3.8,1,3.8,4.6l0,3.3c0,3.4-1.2,4.5-3.9,4.5   C208.8,61,207.6,60,207.6,56.4 M214.3,56.4l0-3.2c0-2.6-0.4-3.6-2.8-3.6c-2.2,0-2.8,1-2.8,3.6l0,3.2c0,2.6,0.4,3.7,2.8,3.7   C213.7,60,214.3,59,214.3,56.4"/>
	<path class="st0" d="M220.2,48.8l0.1,1.3c0.6-0.9,1.6-1.5,3.1-1.5c2.8,0,3.7,1.3,3.7,4.4l0,7.9l-1,0l0-7.9c0-2.7-0.6-3.5-2.8-3.5   c-2.2,0-2.9,1.5-2.9,2.9l0,8.5l-1,0l0-12.1L220.2,48.8z"/>
	<path class="st0" d="M231.5,57.5c0,1.4,0.7,2.5,2.9,2.5c1.9,0,2.8-0.9,2.8-2.5c0-2.2-1.7-2.3-3.4-2.5c-1.6-0.2-3.2-0.6-3.2-3.2   c0-2,1.3-3.2,3.8-3.2c2.6,0,3.7,1.2,3.7,3.2l-1,0c0-1.5-0.8-2.2-2.6-2.3c-1.9,0-2.7,0.9-2.7,2.2c0,2.1,1.4,2.1,3,2.3   c1.8,0.3,3.6,0.6,3.6,3.3c0,2.1-1.2,3.5-3.9,3.5c-2.4,0-3.9-1-3.9-3.5L231.5,57.5z"/>
	<path class="st0" d="M112.1,1.9l0,5.3c0,0.3-0.2,0.5-0.5,0.5h-9.7v31.4c0,0.3-0.2,0.5-0.5,0.5h-5.8c-0.3,0-0.5-0.2-0.5-0.5V7.7   h-9.7c-0.3,0-0.5-0.2-0.5-0.5V2.8c0-0.3,0.2-0.5,0.5-0.5c7-0.4,26.1-0.9,26.1-0.9C111.8,1.4,112.1,1.6,112.1,1.9"/>
	<path class="st0" d="M71.4,2.9c-6,0.4-15.8,0.9-24.1,1.6c-0.3,0-0.5,0.2-0.5,0.5v34c0,0.3,0.2,0.5,0.5,0.5h24.1   c0.3,0,0.5-0.2,0.5-0.5v-5.7c0-0.3-0.2-0.5-0.5-0.5H53.5v-7.4h13.7c0.3,0,0.5-0.2,0.5-0.5v-5.7c0-0.3-0.2-0.5-0.5-0.5H53.5v-9   l17.9-0.9c0.3,0,0.5-0.2,0.5-0.5V3.5C71.9,3.2,71.7,2.9,71.4,2.9"/>
	<path class="st0" d="M149.6,1c-6,0-18,0-24.1,0.1c-0.3,0-0.5,0.2-0.5,0.5v37.5c0,0.3,0.2,0.5,0.5,0.5h24.1c0.3,0,0.5-0.2,0.5-0.5   v-5.7c0-0.3-0.2-0.5-0.5-0.5h-17.9v-7.4h13.7c0.3,0,0.5-0.2,0.5-0.5v-5.7c0-0.3-0.2-0.5-0.5-0.5h-13.7V7.8h17.9   c0.3,0,0.5-0.2,0.5-0.5V1.5C150.1,1.2,149.9,1,149.6,1"/>
	<path class="st0" d="M31.7,6c-1.4,0.1-5.6,0.6-5.6,0.6c-0.3,0-0.5,0.2-0.5,0.5l0,18.7L1.8,10C1.6,9.8,1.4,9.8,1.2,9.9   C1,10,0.9,10.1,0.9,10.3v28.8c0,0.3,0.2,0.5,0.5,0.5H7c0.3,0,0.5-0.2,0.5-0.5V22.4l23.8,17.1c0.1,0.1,0.2,0.1,0.4,0.1   c0.1,0,0.1,0,0.2,0c0.2-0.1,0.3-0.3,0.3-0.5l0-32.6C32.2,6.2,32,6,31.7,6"/>
	<path class="st0" d="M195.9,38.9l-8.5-10.8c1.9-1.4,7.3-3.3,7.2-13c-0.1-7.8-6.9-13-15.7-13.6c-4.7-0.4-10.3-0.2-10.3-0.2   c-0.3,0-0.5,0.2-0.5,0.5v37.4c0,0.3,0.2,0.5,0.5,0.5h5.9c0.3,0,0.5-0.2,0.5-0.5v-8.8h5.4l7.2,9.1c0.1,0.1,0.3,0.2,0.4,0.2h7.5   c0.2,0,0.4-0.1,0.5-0.3C196,39.3,196,39.1,195.9,38.9 M178.9,23.5H175V8c0,0,2.7,0,3.9,0c0.8,0,2.2,0.2,3.4,0.6   c2.8,1,5.7,3.2,5.7,7.6C187.9,22.3,181.2,23.5,178.9,23.5"/>
	<path class="st0" d="M240.8,38.9l-8.5-10.8c1.9-1.4,7.7-3.5,7.2-12.4c-0.2-3.7-3.3-11-14.1-12.1c-2.9-0.3-7.5-0.6-11.9-0.8   c-0.3,0-0.5,0.2-0.5,0.5v35.9c0,0.3,0.2,0.5,0.5,0.5h5.9c0.3,0,0.5-0.2,0.5-0.5v-8.8h5.4l7.2,9.1c0.1,0.1,0.3,0.2,0.4,0.2h7.5   c0.2,0,0.4-0.1,0.5-0.3C241,39.3,241,39.1,240.8,38.9 M223.8,23.5h-3.9V9.8c0,0,2.8,0,3.7,0.1c1.1,0.1,2.2,0.3,3.2,0.5   c3.5,0.9,6.1,2.9,6,6.4C232.7,23,226.2,23.5,223.8,23.5"/>
	<path class="st0" d="M286.1,38.9L269.4,7.8c-0.2-0.4-0.8-0.4-1,0l-16.7,31.2c-0.1,0.2-0.1,0.4,0,0.5c0.1,0.1,0.3,0.2,0.4,0.2h6.1   c0.2,0,0.4-0.1,0.5-0.3c2.4-5.1,10.1-20.8,10.1-20.8l5.4,11.3c2.3,0.3,5.4,2.1,6,4.9c0.5,2.3-0.2,3.9-1,4.9c0,0,0,0,0,0h6.3   c0.2,0,0.3-0.1,0.4-0.2C286.1,39.3,286.1,39.1,286.1,38.9"/>
	<path class="st1" d="M278.7,35.3c0,2.4-2,4.4-4.4,4.4s-4.4-2-4.4-4.4c0-2.4,2-4.4,4.4-4.4S278.7,32.9,278.7,35.3"/>
</g>
</svg>